<svg xmlns="http://www.w3.org/2000/svg" width="60" height="60" viewBox="0 0 60 60">
    <g fill="#000" fill-rule="nonzero">
        <path d="M0 56h60v4H0zM3.375 49.5v4H56.75v-4H52v-23h4.75v-4H3.375v4h4.75v23h-4.75zm30-23H45v23H33.375v-23zm-18.5 0H26.5v23H14.875v-23zM30 0L0 14.875V20h60v-5.125L30 0zm0 16.5a6.456 6.456 0 0 1-6.5-6.5c0-3.625 2.875-6.5 6.5-6.5s6.5 2.875 6.5 6.5-2.875 6.5-6.5 6.5z"/>
        <path d="M30.5 9.125V6.75c.625.125 1.25.375 1.75.75L33 6.375c-.75-.5-1.625-.875-2.625-.875v-.625h-.75V5.5c-.75 0-1.5.25-2 .75s-.75 1-.75 1.75.25 1.25.625 1.625c.625.375 1.25.625 2.25.875v2.375c-.75-.125-1.5-.5-2.125-1.125l-.875 1.125c.875.75 1.875 1.25 3 1.375v.875h.75v-.875c.875 0 1.5-.25 2-.75s.75-1 .75-1.75-.25-1.25-.625-1.625-1.125-.75-2.125-1zM29.75 9l-1-.5a.955.955 0 0 1-.25-.625c0-.25.125-.5.375-.75.25-.125.5-.25.875-.375V9zm1.75 3.625c-.25.25-.5.25-1 .375v-2.25c.5.125.875.25 1 .5.125.125.25.375.25.75.125.125 0 .375-.25.625z"/>
    </g>
</svg>
