<svg xmlns="http://www.w3.org/2000/svg" width="50" height="48" viewBox="0 0 50 48">
    <g fill="#000" fill-rule="nonzero">
        <path d="M17.622 44.81L3.342 28.34l-.01-.01-2.97 2.47c-.21.17-.33.42-.36.68-.02.27.06.53.23.73l12.79 15.35a1.005 1.005 0 0 0 1.41.13l3.28-2.74c0-.01-.01-.03.01-.02l-.09-.11-.01-.01zM50.002 31.45c0 1.07-.46 2.09-1.26 2.8l-3.23 2.96c-4.08 3.72-9.32 5.56-15.89 5.56-2.49 0-5.16-.27-8.04-.79l-1.93-.35h-2.19c-.3 0-.59-.13-.77-.37L6.402 28.59c-.24-.3-.29-.71-.13-1.06.17-.35.52-.57.9-.57 1.3 0 2.55-.34 3.62-.98 2.7-1.62 6.06-2 9.06-1.01l3.86 1.28c2.35.78 4.8 1.17 7.27 1.17h2.59c1.4 0 2.62.97 2.95 2.35.25 1.16-.17 2.35-1.05 3.06a8.082 8.082 0 0 1-5.03 1.78h-6.44c-.16 0-.28.11-.28.26 0 .13.12.26.24.26l4.25.12c.44.01.87.03 1.31.04 3.71.15 6.91.27 9.34-2.06l4.67-4.42c.8-.75 1.88-1.16 2.96-1.09 1.02.05 1.93.5 2.57 1.25.6.71.94 1.59.94 2.48zM35.142 22.58c6.2 0 11.25-5.04 11.25-11.25 0-6.2-5.05-11.25-11.25-11.25s-11.25 5.05-11.25 11.25c0 6.21 5.05 11.25 11.25 11.25zm.007-10.241c-2.006-.016-3.622-1.64-3.622-3.622a3.564 3.564 0 0 1 2.61-3.454v-.327a1 1 0 1 1 2 0v.328c1.514.437 2.623 1.81 2.623 3.453a1 1 0 1 1-2 0c0-.889-.722-1.611-1.611-1.611-.911.006-1.622.714-1.622 1.611 0 .902.71 1.615 1.618 1.622a3.61 3.61 0 0 1 3.615 3.6 3.615 3.615 0 0 1-2.623 3.467v.325a1 1 0 1 1-2 0V17.4a3.572 3.572 0 0 1-2.61-3.461 1 1 0 1 1 2 0c0 .902.71 1.615 1.619 1.623a1.62 1.62 0 0 0 1.614-1.623c0-.882-.722-1.6-1.611-1.6z"/>
    </g>
</svg>
