<svg xmlns="http://www.w3.org/2000/svg" width="36" height="50" viewBox="0 0 36 50">
    <g fill="none" fill-rule="evenodd">
        <path stroke="#000" stroke-width="2" d="M35 9.054l-7.286-7.322H1V48.92h34z"/>
        <path stroke="#000" stroke-width="2" d="M27.714 1.732v7.322H35"/>
        <path fill="#000" fill-rule="nonzero" d="M13.143 11.495a1.628 1.628 0 0 1 0 3.254 1.628 1.628 0 0 1 0-3.254zm0-1.627c-1.781 0-3.238 1.464-3.238 3.254s1.457 3.254 3.238 3.254c1.78 0 3.238-1.464 3.238-3.254s-1.457-3.254-3.238-3.254zM13.143 18.898c4.452 0 4.857 2.441 4.857 4.882v.813H8.286v-.813c0-2.441.404-4.882 4.857-4.882zm0-1.627c-6.476 0-6.476 4.719-6.476 6.509v2.44h12.952v-2.44c0-1.79 0-6.509-6.476-6.509z"/>
        <path stroke="#000" stroke-width="2" d="M6.667 31.02h22.666M6.667 35.902h22.666M6.667 40.783h22.666"/>
    </g>
</svg>
