<svg xmlns="http://www.w3.org/2000/svg" width="58" height="60" viewBox="0 0 58 60">
    <path fill="#000" fill-rule="nonzero" d="M21.17 12.536h15.916l1.455-2.061c1.188-1.78 2.498-3.483 3.63-5.298.538-.862 1.546-2.274 1.149-3.366-.283-.78-1.008-1.045-1.785-1.181C40.973.532 38.1-.188 36.94.047c-1.029.21-1.98.694-2.966 1.035-1.39.48-2.93.882-4.454.8-1.318-.072-2.815-.24-4.057-.685-1.03-.37-2.024-.915-3.113-1.1-.941-.16-4.367.311-5.057.429-4.852.829-1.324 4.495 2.42 9.949l1.455 2.061zm35.066 28.909c-4.08-9.337-11.468-19.52-19.208-24.431h-16.06C13.232 21.927 5.844 32.11 1.765 41.445c-4.09 9.359.816 18.554 10.165 18.554h34.142c9.35 0 14.256-9.195 10.165-18.554zm-25.744 8.477v3.79h-3.038v-3.57c-2.334-.073-4.668-.735-6.002-1.618l1-3.46c1.446.847 3.52 1.62 5.78 1.62 2.335 0 3.928-1.141 3.928-2.907 0-1.656-1.297-2.723-4.04-3.716-3.89-1.399-6.41-3.165-6.41-6.587 0-3.164 2.223-5.593 5.966-6.255v-3.606h3.038v3.422c2.334.074 3.927.625 5.113 1.214l-1 3.385c-.89-.405-2.52-1.251-5.04-1.251-2.592 0-3.518 1.325-3.518 2.576 0 1.509 1.334 2.354 4.482 3.606 4.15 1.545 6.003 3.532 6.003 6.807 0 3.129-2.186 5.888-6.262 6.55z"/>
</svg>
