<svg xmlns="http://www.w3.org/2000/svg" width="71" height="42" viewBox="0 0 71 42">
    <g fill="#000" fill-rule="nonzero">
        <path d="M13.602 26.049a1.71 1.71 0 0 1-1.683-2.022l3.596-19.42a1.71 1.71 0 1 1 3.364.623l-3.597 19.42a1.711 1.711 0 0 1-1.68 1.399M58.615 30.405a1.71 1.71 0 0 1-1.582-1.058l-7.792-18.862a1.711 1.711 0 0 1 3.162-1.306l7.792 18.862a1.71 1.71 0 0 1-1.58 2.364"/>
        <path d="M34.494 41.849c-1.976 0-3.716-.906-4.781-1.945L13.018 26.077l-10.938.51a1.707 1.707 0 0 1-1.332-.545 1.706 1.706 0 0 1-.445-1.37L3.09 1.655A1.712 1.712 0 0 1 5.198.199L17.46 3.22l13.187.886a1.71 1.71 0 1 1-.229 3.414l-13.335-.896a1.62 1.62 0 0 1-.294-.045L6.256 3.983 3.944 23.075l9.577-.445c.426-.021.843.119 1.171.391l17.263 14.296c.043.035.084.072.123.112 0 0 .674.643 1.645.904 1.181.317 2.311-.066 3.459-1.176a1.71 1.71 0 0 1 2.377 2.461c-1.687 1.627-3.455 2.231-5.065 2.231"/>
        <path d="M41.548 41.85c-2.082 0-3.454-1.311-3.759-1.632l-7.167-7.047a1.712 1.712 0 0 1 2.398-2.44l7.192 7.072c.037.035.039.036.066.067.078.077.643.597 1.361.554.766-.045 1.643-.694 2.533-1.877a1.71 1.71 0 0 1 2.733 2.059c-1.561 2.07-3.292 3.16-5.147 3.238-.07.005-.141.006-.21.006"/>
        <path d="M47.705 40.021c-2.033 0-3.422-1.233-3.631-1.431l-8.508-7.969a1.711 1.711 0 1 1 2.34-2.498l8.508 7.97c.043.037.732.619 1.559.484.898-.146 1.895-1.108 2.805-2.708a1.711 1.711 0 0 1 2.975 1.69c-1.495 2.628-3.282 4.11-5.313 4.407a4.809 4.809 0 0 1-.735.055"/>
        <path d="M53.896 36.854a4.77 4.77 0 0 1-3.105-1.149l-10.674-9.17a1.71 1.71 0 1 1 2.229-2.595l10.673 9.169c.287.248.652.359 1.03.314a1.337 1.337 0 0 0 .742-2.324l-.015-.014-2.555-2.367a1.71 1.71 0 1 1 2.324-2.51l2.549 2.36a4.753 4.753 0 0 1 .652 6.318 4.772 4.772 0 0 1-3.85 1.968"/>
        <path d="M68.58 30.409h-9.576c-4.709 0-6.383-1.273-6.847-1.755L38.749 15.153a2.444 2.444 0 0 0-3.403-.158l-5.933 5.241a5.502 5.502 0 0 1-7.473-.199c-2.135-2.098-2.182-5.558-.105-7.713l5.243-5.443c3.956-4.59 7.833-5.648 10.392-5.727 2.846-.088 4.727.969 4.931 1.09.024.015.048.029.071.045L51.12 7.98l12.564-3.368a1.707 1.707 0 0 1 2.121 1.319l4.451 22.434a1.712 1.712 0 0 1-1.676 2.044zm-14.01-4.18c.143.096 1.24.759 4.434.759h7.492L62.807 8.391l-11.541 3.094a1.716 1.716 0 0 1-1.384-.224l-9.241-6.082c-.41-.219-5.327-2.639-10.998 3.969-.021.024-.043.05-.066.073l-5.275 5.477a2.067 2.067 0 0 0 .039 2.9 2.069 2.069 0 0 0 2.809.074l5.934-5.24a5.856 5.856 0 0 1 8.104.318L54.57 26.229zm.084.086z"/>
    </g>
</svg>
